<?xml version="1.0" standalone="no"?>
<!DOCTYPE svg PUBLIC "-//W3C//DTD SVG 20010904//EN"
 "http://www.w3.org/TR/2001/REC-SVG-20010904/DTD/svg10.dtd">
<svg version="1.0" xmlns="http://www.w3.org/2000/svg"
 width="700.000000pt" height="700.000000pt" viewBox="0 0 700.000000 700.000000"
 preserveAspectRatio="xMidYMid meet">
<metadata>
Created by potrace 1.14, written by Peter Selinger 2001-2017
</metadata>
<g transform="translate(0.000000,700.000000) scale(0.100000,-0.100000)"
fill="#000000" stroke="none">
<path d="M2925 6454 c-188 -19 -259 -29 -385 -54 -1194 -239 -2128 -1203
-2329 -2405 -216 -1290 430 -2560 1598 -3144 558 -280 1190 -372 1816 -266
1039 177 1913 905 2275 1896 l49 134 -71 17 c-341 85 -607 364 -672 707 -67
354 73 705 366 914 82 59 197 112 291 137 83 21 81 11 30 150 -226 612 -687
1163 -1253 1501 -350 208 -732 340 -1140 394 -118 15 -488 28 -575 19z m34
-1700 c21 -27 21 -27 21 -1260 0 -1221 0 -1234 -20 -1254 -19 -19 -33 -20
-409 -20 -349 0 -390 2 -402 17 -12 13 -15 178 -19 949 l-5 933 -21 22 c-13
13 -39 23 -66 26 -37 4 -49 1 -76 -22 l-32 -27 0 -914 c0 -972 1 -960 -45
-978 -22 -8 -748 -8 -770 0 -46 18 -45 -15 -45 1269 0 1292 -2 1246 47 1274
12 7 326 10 920 11 l902 0 20 -26z m1011 -6 c19 -32 20 -53 20 -951 0 -1020
-4 -957 67 -976 46 -13 103 6 120 39 10 20 13 223 13 940 0 843 1 917 17 940
9 14 22 28 27 32 6 4 183 8 393 8 l383 0 17 -27 c17 -26 18 -98 21 -1233 1
-663 0 -1219 -3 -1237 -12 -68 56 -63 -934 -63 -824 0 -900 1 -912 17 -21 24
-21 2502 0 2526 12 15 51 17 382 17 l369 0 20 -32z"/>
<path d="M5945 4236 c-231 -54 -407 -190 -510 -396 -59 -118 -70 -169 -69
-330 0 -132 2 -152 27 -225 41 -116 99 -209 186 -295 142 -139 283 -200 487
-208 100 -4 134 -1 204 17 259 65 449 248 532 511 19 62 23 96 23 200 0 147
-16 215 -77 340 -34 68 -60 103 -133 176 -100 101 -180 152 -303 191 -96 31
-274 40 -367 19z m463 -723 l-3 -298 -57 -3 -58 -3 0 301 0 300 60 0 60 0 -2
-297z m-288 119 c49 -36 55 -63 55 -247 l0 -170 -57 -3 -58 -3 0 156 c0 154 0
156 -26 182 -20 20 -31 24 -57 19 -65 -13 -71 -30 -77 -199 l-5 -152 -57 -3
-58 -3 0 221 0 220 55 0 55 0 0 -32 0 -32 29 28 c15 15 41 31 57 36 40 13 114
3 144 -18z"/>
</g>
</svg>
